<svg width="365" height="365" viewBox="0 0 365 365" fill="none" xmlns="http://www.w3.org/2000/svg">
<g clip-path="url(#clip0_3_2)">
<mask id="mask0_3_2" style="mask-type:luminance" maskUnits="userSpaceOnUse" x="0" y="0" width="365" height="365">
<path d="M365 0H0V365H365V0Z" fill="white"/>
</mask>
<g mask="url(#mask0_3_2)">
<path d="M105.85 264.479C105.85 252.142 105.85 251.996 107.529 251.558C108.405 251.339 109.938 251.12 111.033 251.12C112.055 251.12 114.61 250.244 116.727 249.149C120.085 247.543 120.888 246.667 122.567 243.163L124.465 239.075L124.83 186.88L125.195 134.685L140.744 134.466L156.22 134.32V136.072V137.824L162.425 135.634C172.937 132.057 192.574 131.546 203.67 134.612C220.971 139.43 233.454 152.424 236.885 169.214C238.345 176.149 238.345 191.041 236.885 197.83C234.841 207.393 228.344 218.197 221.409 223.526C210.605 231.702 198.779 234.768 180.529 234.184C170.966 233.819 168.995 233.527 163.155 231.556C159.578 230.315 156.585 229.366 156.585 229.439C156.512 229.512 156.074 233.381 155.563 237.98C152.789 264.26 141.401 274.699 113.88 276.378L105.85 276.889V264.479ZM191.406 207.32C195.202 206.225 199.947 202.429 202.794 198.268C209.437 188.34 208.561 174.397 200.677 165.418C189.289 152.424 169.944 156.585 163.447 173.521C159.797 183.084 162.279 195.056 169.433 202.21C175.346 208.123 182.792 209.802 191.406 207.32Z" fill="#F8B500"/>
<path d="M132.422 123.078C126.728 120.596 123.443 114.537 123.37 106.726C123.37 100.302 124.392 97.528 128.334 94.024C131.984 90.666 136.145 89.498 142.496 89.936C148.555 90.374 152.278 92.272 155.125 96.287C157.242 99.28 157.315 99.718 157.315 106.945C157.315 114.172 157.242 114.61 155.125 117.676C151.84 122.348 147.825 124.1 140.525 124.1C137.313 124.027 133.663 123.589 132.422 123.078Z" fill="#F8B500"/>
<path d="M82.49 364.562C81.468 364.416 78.183 363.905 75.19 363.394C64.021 361.715 51.246 356.605 40.515 349.597C33.361 344.852 20.44 332.077 15.914 325.215C9.34399 315.214 4.81799 304.483 1.67899 291.27C0.43799 286.16 0.36499 279.152 0.36499 182.135V78.475L2.70099 69.569C7.00799 52.779 14.819 39.201 27.01 27.01C40.296 13.651 55.334 5.54799 73.876 1.60599C79.497 0.437991 88.038 0.364991 182.865 0.364991C296.599 0.364991 288.423 0.0729911 303.023 5.03699C316.747 9.63599 327.77 16.571 338.355 27.302C351.495 40.515 359.525 55.407 363.394 73.876C364.562 79.497 364.635 88.038 364.635 183.23V286.525L362.956 293.095C358.065 312.44 351.13 324.923 338.063 338.063C324.85 351.203 311.053 358.722 292 363.321C286.89 364.489 279.59 364.635 185.42 364.708C129.794 364.781 83.512 364.708 82.49 364.562ZM124.83 272.509C134.028 270.465 141.766 265.72 146 259.442C150.453 253.018 154.03 239.367 154.03 228.709C154.03 226.592 154.176 224.84 154.395 224.84C154.614 224.84 156.074 225.497 157.68 226.3C170.382 232.797 190.092 234.038 204.108 229.22C217.321 224.694 225.278 217.759 231.191 205.787C234.257 199.509 235.79 192.209 235.79 183.595C235.79 169.36 231.337 157.461 222.723 148.847C218.927 145.051 216.372 143.299 210.97 140.744C201.407 136.145 196.078 134.977 184.471 134.977C173.667 134.977 167.17 136.291 158.921 140.087L154.03 142.277V139.357V136.51L140.744 136.656L127.385 136.875L127.02 189.07L126.655 241.265L124.757 245.353C123.078 248.857 122.275 249.733 118.917 251.339C116.8 252.434 114.245 253.31 113.223 253.31C112.128 253.31 110.595 253.529 109.719 253.748C108.113 254.186 108.04 254.478 108.04 264.406V274.626L114.099 274.115C117.384 273.823 122.202 273.093 124.83 272.509ZM147.46 120.304C156.877 115.559 158.264 101.543 150.015 95.192C146.73 92.71 140.744 91.542 136.656 92.637C132.933 93.659 127.969 97.966 126.509 101.251C123.662 108.113 127.677 117.895 134.612 120.888C138.189 122.421 143.737 122.129 147.46 120.304Z" fill="#383D45"/>
<path d="M174.981 209.364C169.141 207.393 164.396 202.502 161.695 195.859C159.87 191.552 159.651 189.946 159.651 183.23C159.578 176.952 159.943 174.762 161.257 171.331C163.52 165.564 166.732 161.622 171.769 158.556C175.565 156.22 176.66 155.928 182.208 155.636C191.771 155.125 197.684 157.315 202.867 163.228C213.817 175.638 211.262 199.217 198.122 207.393C192.136 211.043 182.281 211.919 174.981 209.364Z" fill="#383D45"/>
</g>
</g>
<defs>
<clipPath id="clip0_3_2">
<rect width="365" height="365" fill="white"/>
</clipPath>
</defs>
</svg>
