<svg width="1418" height="755" viewBox="0 0 1418 755" fill="none" xmlns="http://www.w3.org/2000/svg">
<rect width="1418" height="755" fill="#383D45"/>
<path d="M590 416.615C590 392.128 590 391.838 592.973 390.969C594.525 390.534 597.24 390.1 599.179 390.1C600.989 390.1 605.514 388.361 609.263 386.187C615.21 383 616.632 381.261 619.606 374.306L622.984 366.31L623.613 262.593L624.26 158.995L651.797 158.56L679.204 158.27V161.748V165.225L690.193 160.878C708.81 153.778 743.587 152.764 763.238 158.85C793.877 168.413 815.985 194.204 822.061 227.529C824.646 241.294 824.646 270.852 822.061 284.327C818.441 303.308 806.935 324.753 794.653 335.33C775.519 351.558 754.576 357.643 722.255 356.484C705.319 355.76 701.829 355.18 691.486 351.268C685.151 348.805 679.851 346.921 679.851 347.066C679.722 347.211 678.946 354.891 678.041 364.019C673.128 416.18 652.96 436.9 604.221 440.233L590 441.247V416.615ZM741.518 303.164C748.241 300.99 756.644 293.456 761.686 285.197C773.451 265.491 771.899 237.817 757.937 219.995C737.769 194.204 703.509 202.463 692.003 236.078C685.539 255.059 689.935 278.821 702.604 293.021C713.076 304.757 726.263 308.09 741.518 303.164Z" fill="#F8B500"/>
<path d="M637.059 135.957C626.975 131.03 621.157 119.004 621.028 103.5C621.028 90.7498 622.838 85.2439 629.819 78.289C636.283 71.6239 643.652 69.3056 654.899 70.175C665.63 71.0443 672.223 74.8116 677.265 82.7807C681.014 88.7213 681.144 89.5907 681.144 103.935C681.144 118.28 681.014 119.149 677.265 125.234C671.448 134.508 664.337 137.985 651.409 137.985C645.72 137.84 639.256 136.971 637.059 135.957Z" fill="#F8B500"/>
<path d="M493.324 599.605L498.305 591.695C499.607 592.607 501.137 593.453 502.895 594.234C504.717 595.016 506.996 595.406 509.73 595.406C513.311 595.406 516.111 594.853 518.129 593.746C520.147 592.639 521.156 591.012 521.156 588.863C521.156 587.301 520.57 586.064 519.398 585.152C518.227 584.176 516.729 583.362 514.906 582.711C513.148 581.995 511.228 581.344 509.145 580.758C507.126 580.107 505.238 579.326 503.48 578.414C500.03 576.591 497.426 574.671 495.668 572.652C493.975 570.634 493.129 567.965 493.129 564.645C493.129 561.91 493.682 559.501 494.789 557.418C495.961 555.335 497.458 553.609 499.281 552.242C501.104 550.81 503.188 549.736 505.531 549.02C507.875 548.303 510.251 547.945 512.66 547.945C515.915 547.945 518.91 548.303 521.645 549.02C524.379 549.671 527.016 550.81 529.555 552.438L525.746 560.543C523.793 559.436 521.677 558.688 519.398 558.297C517.12 557.841 514.874 557.613 512.66 557.613C510.251 557.613 508.331 558.167 506.898 559.273C505.531 560.315 504.848 561.975 504.848 564.254C504.848 566.012 505.466 567.411 506.703 568.453C508.005 569.43 509.665 570.309 511.684 571.09C513.702 571.871 515.85 572.652 518.129 573.434C520.408 574.215 522.523 575.224 524.477 576.461C526.495 577.633 528.155 579.13 529.457 580.953C530.759 582.776 531.41 585.12 531.41 587.984C531.41 590.784 530.857 593.225 529.75 595.309C528.643 597.392 527.146 599.117 525.258 600.484C523.37 601.852 521.189 602.861 518.715 603.512C516.241 604.163 513.604 604.488 510.805 604.488C509.112 604.488 507.549 604.423 506.117 604.293C504.685 604.228 503.285 604.033 501.918 603.707C500.551 603.382 499.184 602.893 497.816 602.242C496.449 601.591 494.952 600.712 493.324 599.605ZM619.562 596.285C617.349 599.085 614.94 601.168 612.336 602.535C609.732 603.837 606.411 604.488 602.375 604.488C598.534 604.488 595.051 603.772 591.926 602.34C588.801 600.842 586.132 598.857 583.918 596.383C581.704 593.844 580.012 590.882 578.84 587.496C577.733 584.111 577.18 580.432 577.18 576.461C577.18 572.555 577.798 568.909 579.035 565.523C580.272 562.138 581.997 559.208 584.211 556.734C586.424 554.195 589.094 552.21 592.219 550.777C595.344 549.345 598.827 548.629 602.668 548.629C606.704 548.629 610.155 549.312 613.02 550.68C615.884 551.982 618.423 554.033 620.637 556.832L615.363 563.18C614.257 561.878 612.727 560.706 610.773 559.664C608.82 558.557 606.151 558.004 602.766 558.004C600.812 558.004 599.022 558.46 597.395 559.371C595.767 560.283 594.367 561.552 593.195 563.18C592.089 564.807 591.21 566.728 590.559 568.941C589.973 571.155 589.68 573.564 589.68 576.168C589.68 578.772 589.94 581.214 590.461 583.492C591.047 585.706 591.893 587.659 593 589.352C594.107 591.044 595.409 592.379 596.906 593.355C598.469 594.332 600.259 594.82 602.277 594.82C605.207 594.82 607.648 594.365 609.602 593.453C611.62 592.477 613.475 591.305 615.168 589.938L619.562 596.285ZM698.828 560.836C697.005 560.315 694.792 560.022 692.188 559.957C689.844 559.957 687.5 560.25 685.156 560.836C682.878 561.357 681.055 562.268 679.688 563.57V584.469V584.664V604H667.871V548.922H678.418L679.688 554.586C680.664 553.609 681.673 552.73 682.715 551.949C683.822 551.168 685.091 550.549 686.523 550.094C687.956 549.573 689.648 549.182 691.602 548.922C693.555 548.661 695.964 548.531 698.828 548.531V560.836ZM755.242 604H743.328V548.922H755.242V604ZM756.316 531.344C756.316 533.297 755.633 534.957 754.266 536.324C752.898 537.626 751.238 538.277 749.285 538.277C747.332 538.277 745.672 537.594 744.305 536.227C743.003 534.859 742.352 533.232 742.352 531.344C742.352 529.391 743.035 527.73 744.402 526.363C745.77 524.996 747.397 524.312 749.285 524.312C751.238 524.312 752.898 524.996 754.266 526.363C755.633 527.73 756.316 529.391 756.316 531.344ZM851.988 565.621C852.77 568.616 853.16 571.969 853.16 575.68C853.16 579.391 852.704 583.004 851.793 586.52C850.947 589.97 849.612 593.03 847.789 595.699C846.031 598.368 843.785 600.517 841.051 602.145C838.382 603.707 835.224 604.488 831.578 604.488C829.625 604.488 827.737 604.293 825.914 603.902C824.091 603.512 822.464 602.991 821.031 602.34C819.599 601.624 818.395 600.875 817.418 600.094C816.507 599.247 815.953 598.368 815.758 597.457V625.68H803.844V548.922H814.488L815.758 554.488C817.06 552.665 819.013 551.201 821.617 550.094C824.286 548.987 827.216 548.434 830.406 548.434C832.555 548.434 834.736 548.727 836.949 549.312C839.163 549.898 841.214 550.875 843.102 552.242C845.055 553.609 846.812 555.4 848.375 557.613C849.938 559.827 851.142 562.496 851.988 565.621ZM827.672 595.309C829.625 595.309 831.383 594.82 832.945 593.844C834.573 592.867 835.94 591.565 837.047 589.938C838.219 588.245 839.13 586.259 839.781 583.98C840.432 581.637 840.758 579.163 840.758 576.559C840.758 574.02 840.465 571.611 839.879 569.332C839.293 567.053 838.447 565.035 837.34 563.277C836.298 561.52 834.996 560.12 833.434 559.078C831.936 558.036 830.178 557.516 828.16 557.516C826.207 557.516 824.417 558.004 822.789 558.98C821.161 559.957 819.762 561.292 818.59 562.984C817.418 564.612 816.507 566.565 815.855 568.844C815.27 571.057 814.977 573.466 814.977 576.07C814.977 578.674 815.237 581.148 815.758 583.492C816.344 585.771 817.19 587.789 818.297 589.547C819.404 591.305 820.738 592.704 822.301 593.746C823.863 594.788 825.654 595.309 827.672 595.309ZM914.066 587.301C914.066 589.514 914.359 591.24 914.945 592.477C915.531 593.714 916.345 594.658 917.387 595.309C918.493 595.96 919.698 596.383 921 596.578C922.367 596.708 923.799 596.773 925.297 596.773V604C924.451 604.13 923.604 604.228 922.758 604.293C922.042 604.358 921.163 604.391 920.121 604.391C919.145 604.456 918.168 604.488 917.191 604.488C916.215 604.488 915.206 604.456 914.164 604.391C913.188 604.326 912.341 604.228 911.625 604.098C909.411 603.707 907.686 602.763 906.449 601.266C905.212 599.703 904.268 598.01 903.617 596.188C903.031 594.299 902.641 592.477 902.445 590.719C902.315 588.961 902.25 587.594 902.25 586.617V556.93H895.023V548.922H902.25V533.297H914.066V548.922H922.855V556.93H914.066V587.301Z" fill="white"/>
</svg>
